# xmcd CD database file generated by Grip 2.7
# 
# Track frame offsets:
#       150
#       21508
#       34223
#       50283
#       62810
#       77003
#       92605
#       106328
#       119368
#       137193
# 
# Disc length: 2017 seconds
# 
# Revision: 3
# Processed by: cddbd v1.4b41PL1 Copyright (c) Steve Scherf et al.
# Submitted via: Grip 2.7
# 
DISCID=8407df0a
DTITLE=The Smith Sisters - Roadrunner
DYEAR=1900
DGENRE=
TTITLE0=The River and The Moon
TTITLE1=Dancyville Road
TTITLE2=Crazy Over You
TTITLE3=River Roll On
TTITLE4=Fire of Change
TTITLE5=Virginai
TTITLE6=French Broad River Waltz
TTITLE7=All Through Throwing Good Love After Bad
TTITLE8=Closer Now Than Ever
TTITLE9=The Bramble and The Rose
EXTD=
EXTT0=
EXTT1=
EXTT2=
EXTT3=
EXTT4=
EXTT5=
EXTT6=
EXTT7=
EXTT8=
EXTT9=
PLAYORDER=
